<?xml version="1.0" encoding="UTF-8" standalone="no"?>
<!-- Created with Inkscape (http://www.inkscape.org/) -->

<svg
   xmlns:dc="http://purl.org/dc/elements/1.1/"
   xmlns:cc="http://creativecommons.org/ns#"
   xmlns:rdf="http://www.w3.org/1999/02/22-rdf-syntax-ns#"
   xmlns:svg="http://www.w3.org/2000/svg"
   xmlns="http://www.w3.org/2000/svg"
   xmlns:sodipodi="http://sodipodi.sourceforge.net/DTD/sodipodi-0.dtd"
   xmlns:inkscape="http://www.inkscape.org/namespaces/inkscape"
   version="1.0"
   width="1600"
   height="1200"
   id="svg8839"
   inkscape:version="0.48.1 r9760"
   sodipodi:docname="background.svg">
  <metadata
     id="metadata3231">
    <rdf:RDF>
      <cc:Work
         rdf:about="">
        <dc:format>image/svg+xml</dc:format>
        <dc:type
           rdf:resource="http://purl.org/dc/dcmitype/StillImage" />
      </cc:Work>
    </rdf:RDF>
  </metadata>
  <sodipodi:namedview
     pagecolor="#ffffff"
     bordercolor="#666666"
     borderopacity="1"
     objecttolerance="10"
     gridtolerance="10"
     guidetolerance="10"
     inkscape:pageopacity="0"
     inkscape:pageshadow="2"
     inkscape:window-width="1625"
     inkscape:window-height="1030"
     id="namedview3229"
     showgrid="false"
     inkscape:zoom="0.63168206"
     inkscape:cx="906.26769"
     inkscape:cy="556.06749"
     inkscape:window-x="-3"
     inkscape:window-y="-3"
     inkscape:window-maximized="1"
     inkscape:current-layer="layer1" />
  <defs
     id="defs8841" />
  <g
     id="layer1">
    <rect
       width="1600"
       height="1200"
       x="0"
       y="0"
       style="fill:#559dcc;fill-opacity:1;fill-rule:nonzero;stroke:none;stroke-width:1;stroke-linecap:butt;stroke-linejoin:miter;stroke-miterlimit:4;stroke-dasharray:none;stroke-dashoffset:0;stroke-opacity:1;display:inline"
       id="rect8727" />
    <g
       id="g3316"
       transform="translate(63.322995,-134.56137)">
      <path
         id="path8733"
         style="fill:#ffffff;fill-opacity:1;fill-rule:nonzero;stroke:none;display:inline"
         d="m 180.18194,166.89827 c -38.7615,0 -70.8815,28.63664 -76.3444,65.88937 -1.3665,-0.12153 -2.7415,-0.20021 -4.137605,-0.20021 -26.6696,0 -48.389,22.64525 -48.9832,50.76285 -4.4556,-2.48888 -9.5746,-3.91511 -15.0376,-3.91511 -17.0716,0 -30.9425996,13.8709 -30.9425996,30.94265 0,17.07175 17.4675996,35.78989 34.5392996,35.7899 144.686305,0.4659 240.818205,1.90989 385.003205,0.9692 19.4121,0 37.1673,-9.20547 37.1673,-28.61748 0,-19.412 -15.757,-35.16916 -35.1691,-35.16916 -5.0611,0 -9.8651,1.07562 -14.2145,3.00306 -7.8803,-13.04886 -22.1829,-21.77774 -38.5281,-21.77776 -6.4361,0 -12.5692,1.36609 -18.1074,3.80388 -3.0848,-19.80606 -20.2193,-34.99121 -40.8861,-34.99121 -16.3152,0 -30.4305,9.45282 -37.1712,23.17918 -6.0277,-3.56796 -12.9161,-5.85691 -20.2651,-6.47326 0.1547,-1.99459 0.2448,-3.99429 0.2448,-6.02838 0,-42.59206 -34.5756,-77.16752 -77.1677,-77.16752 z"
         inkscape:connector-curvature="0" />
    </g>
    <path
       d="m 304.34406,328.31958 c -33.1929,0 -60.6982,24.52251 -65.3763,56.42326 -1.1701,-0.10406 -2.3477,-0.17144 -3.543,-0.17144 -22.838,0 -41.4373,19.39188 -41.9459,43.46992 -3.8157,-2.13131 -8.1992,-3.35264 -12.8774,-3.35264 -14.619,0 -26.4972,11.87815 -26.4972,26.49725 0,14.6191 14.9581,30.6481 29.5774,30.6481 123.8997,0.3989 206.2204,1.6355 329.6911,0.8299 16.6229,0 31.8274,-7.8829 31.8274,-24.5061 0,-16.6231 -13.4933,-30.11651 -30.1165,-30.11651 -4.334,0 -8.4478,0.92109 -12.1724,2.57162 -6.7481,-11.17417 -18.9958,-18.64901 -32.9928,-18.64902 -5.5115,0 -10.7633,1.16983 -15.506,3.25739 -2.6417,-16.96059 -17.3145,-29.96414 -35.0122,-29.96414 -13.9713,0 -26.0587,8.09476 -31.8309,19.8491 -5.1617,-3.05536 -11.0604,-5.01546 -17.3537,-5.54327 0.1325,-1.70803 0.2097,-3.42044 0.2097,-5.1623 0,-36.473 -29.6083,-66.08112 -66.0813,-66.08112 z"
       style="fill:#ffffff;fill-opacity:1;fill-rule:nonzero;stroke:none;display:inline"
       id="path8735"
       inkscape:connector-curvature="0" />
    <path
       d="m 150.22485,560.03901 c -30.8696,0 -56.449796,22.8061 -60.800496,52.4741 -1.0883,-0.0968 -2.1834,-0.1595 -3.2951,-0.1595 -21.2395,0 -38.5369,18.0346 -39.0101,40.4274 -3.5484,-1.9821 -7.6253,-3.118 -11.9758,-3.118 -13.595999,0 -24.642699,11.0468 -24.642699,24.6426 0,13.5959 13.9112,28.503 27.506999,28.503 115.227696,0.371 191.786796,1.521 306.615306,0.7719 15.4597,0 29.6,-7.3312 29.6,-22.7909 0,-15.4596 -12.549,-28.0086 -28.0086,-28.0086 -4.0307,0 -7.8565,0.8566 -11.3205,2.3916 -6.2757,-10.392 -17.6662,-17.3437 -30.6837,-17.3437 -5.1256,0 -10.0099,1.088 -14.4206,3.0294 -2.4567,-15.7735 -16.1026,-27.8669 -32.5614,-27.8669 -12.9935,0 -24.235,7.5282 -29.60321,18.4598 -4.8004,-2.8415 -10.2862,-4.6644 -16.139,-5.1552 0.1232,-1.5885 0.1948,-3.1811 0.1948,-4.801 0,-33.9202 -27.5356,-61.456 -61.4559,-61.456 z"
       style="fill:#ffffff;fill-opacity:1;fill-rule:nonzero;stroke:none;display:inline"
       id="path8737"
       inkscape:connector-curvature="0" />
    <path
       d="m 382.07283,873.2687 c -21.6505,0 -39.5911,15.9951 -42.6424,36.8026 -0.7632,-0.0678 -1.5312,-0.1118 -2.3109,-0.1118 -14.8965,0 -27.0278,12.6485 -27.3597,28.3537 -2.4887,-1.3902 -5.348,-2.1868 -8.3992,-2.1868 -9.5355,0 -17.2832,7.7476 -17.2832,17.283 0,9.5355 9.7566,19.9905 19.2921,19.9905 80.8146,0.2603 134.5092,1.0668 215.0439,0.5414 10.8426,0 20.7599,-5.1418 20.7599,-15.9844 0,-10.8426 -8.8011,-19.6437 -19.6437,-19.6437 -2.8269,0 -5.5102,0.6007 -7.9396,1.6773 -4.4015,-7.2884 -12.3903,-12.164 -21.5199,-12.164 -3.5949,0 -7.0205,0.7631 -10.1138,2.1247 -1.7232,-11.0627 -11.2936,-19.5444 -22.8371,-19.5444 -9.1129,0 -16.997,5.2799 -20.7621,12.9468 -3.3666,-1.9929 -7.2141,-3.2714 -11.3189,-3.6157 0.0863,-1.1141 0.1366,-2.231 0.1366,-3.3671 0,-23.7899 -19.3122,-43.1021 -43.102,-43.1021 z"
       style="fill:#ffffff;fill-opacity:1;fill-rule:nonzero;stroke:none;display:inline"
       id="path8739"
       inkscape:connector-curvature="0" />
    <path
       d="m 121.9437,823.59109 c -9.6577,0 -17.6607,7.135 -19.0218,16.4169 -0.3405,-0.0303 -0.6831,-0.0499 -1.0309,-0.0499 -6.644804,0 -12.056504,5.6422 -12.204604,12.6479 -1.1101,-0.6201 -2.3856,-0.9754 -3.7467,-0.9754 -4.2536,0 -7.7096,3.456 -7.7096,7.7096 0,4.2535 4.3522,8.9173 8.6057,8.9173 36.049804,0.1161 60.001804,0.4759 95.926704,0.2415 4.8367,0 9.2607,-2.2936 9.2607,-7.1303 0,-4.8366 -3.9262,-8.7627 -8.7628,-8.7627 -1.261,0 -2.458,0.268 -3.5417,0.7483 -1.9634,-3.2512 -5.527,-5.4261 -9.5996,-5.4261 -1.6036,0 -3.1317,0.3404 -4.5116,0.9477 -0.7686,-4.9348 -5.0378,-8.7183 -10.1871,-8.7183 -4.0651,0 -7.582,2.3552 -9.2614,5.7753 -1.5018,-0.889 -3.2181,-1.4593 -5.0493,-1.6129 0.0386,-0.497 0.061,-0.9952 0.061,-1.502 0,-10.6122 -8.6148,-19.2269 -19.227,-19.2269 z"
       style="fill:#ffffff;fill-opacity:1;fill-rule:nonzero;stroke:none;display:inline"
       id="path8741"
       inkscape:connector-curvature="0" />
    <path
       d="m 564.48719,247.47404 c 13.3825,0 24.4719,9.88685 26.358,22.74842 0.4718,-0.042 0.9466,-0.0691 1.4285,-0.0691 9.2077,0 16.7064,7.81831 16.9116,17.52597 1.5383,-0.85929 3.3057,-1.3517 5.1917,-1.3517 5.8941,0 10.683,4.78895 10.683,10.68301 0,5.89405 -6.0307,12.35652 -11.9248,12.35653 -49.9532,0.16085 -83.1429,0.65939 -132.923,0.33462 -6.702,0 -12.8321,-3.17821 -12.8321,-9.88024 0,-6.70203 5.4402,-12.14222 12.1422,-12.14222 1.7474,0 3.4059,0.37136 4.9076,1.03681 2.7207,-4.50514 7.6587,-7.51881 13.3019,-7.51881 2.2221,0 4.3395,0.47164 6.2516,1.31329 1.065,-6.83807 6.9808,-12.08078 14.116,-12.08078 5.6329,0 10.5062,3.26361 12.8334,8.00266 2.0811,-1.23185 4.4593,-2.02211 6.9966,-2.23491 -0.0534,-0.68863 -0.0845,-1.37903 -0.0845,-2.0813 0,-14.70499 11.9373,-26.64223 26.6423,-26.64223 z"
       style="fill:#ffffff;fill-opacity:1;fill-rule:nonzero;stroke:none;display:inline"
       id="path8751"
       inkscape:connector-curvature="0" />
    <path
       d="M 486.21254,522.37559 C 498.90564,522.37559 509.42394,531.75316 511.21274,543.95226 C 511.66044,543.91246 512.11064,543.88666 512.56764,543.88666 C 521.30124,543.88666 528.41364,551.30226 528.60824,560.50986 C 530.06734,559.69486 531.74354,559.22776 533.53244,559.22776 C 539.12284,559.22776 543.66534,563.77006 543.66534,569.36046 C 543.66534,574.95096 537.94504,581.08056 532.35474,581.08056 C 484.97474,581.23316 453.49444,581.70596 406.27864,581.39796 C 399.92174,581.39796 394.10744,578.38346 394.10744,572.02656 C 394.10744,565.66976 399.26754,560.50986 405.62444,560.50986 C 407.28154,560.50986 408.85474,560.86206 410.27914,561.49326 C 412.85964,557.22016 417.54324,554.36176 422.89574,554.36176 C 425.00334,554.36176 427.01174,554.80906 428.82544,555.60736 C 429.83544,549.12156 435.44644,544.14886 442.21414,544.14886 C 447.55694,544.14886 452.17924,547.24436 454.38654,551.73936 C 456.36054,550.57096 458.61614,549.82136 461.02284,549.61956 C 460.97204,548.96636 460.94254,548.31156 460.94254,547.64546 C 460.94254,533.69796 472.26494,522.37559 486.21254,522.37559 z "
       style="fill:#ffffff;fill-opacity:1;fill-rule:nonzero;stroke:none;stroke-width:1;stroke-linecap:butt;stroke-linejoin:miter;stroke-miterlimit:4;stroke-dasharray:none;stroke-dashoffset:0;stroke-opacity:1;display:inline"
       id="path8753" />
    <path
       d="m 650.56834,603.53091 c 44.3429,0 81.08751,32.7599 87.33701,75.3764 1.5633,-0.139 3.1362,-0.229 4.7333,-0.229 30.5095,0 55.3562,25.9058 56.036,58.072 5.0972,-2.8473 10.9533,-4.4789 17.2028,-4.4789 19.5298,0 35.398,15.8681 35.398,35.398 0,19.5298 -19.9828,40.9431 -39.5126,40.9431 -165.51891,0.533 -275.49241,2.1849 -440.43801,1.1088 -22.2071,0 -42.5189,-10.531 -42.5189,-32.738 0,-22.2071 18.0261,-40.233 40.233,-40.233 5.79,0 11.2854,1.2304 16.2612,3.4354 9.0148,-14.9277 25.3769,-24.9134 44.0756,-24.9134 7.3628,0 14.379,1.5628 20.7145,4.3516 3.5291,-22.6579 23.1307,-40.0295 46.7732,-40.0295 18.6643,0 34.8121,10.8139 42.5234,26.5167 6.8955,-4.0817 14.7757,-6.7003 23.1828,-7.4054 -0.1769,-2.2817 -0.2799,-4.5694 -0.2799,-6.8963 0,-48.7247 39.5539,-88.2785 88.2786,-88.2785 z"
       style="fill:#ffffff;fill-opacity:1;fill-rule:nonzero;stroke:none;display:inline"
       id="path8755"
       inkscape:connector-curvature="0" />
    <path
       d="m 764.16688,904.32791 c 41.8965,0 76.61401,30.9526 82.51881,71.2181 1.477,-0.1314 2.9633,-0.2164 4.4722,-0.2164 28.8264,0 52.3024,24.47662 52.9447,54.86819 4.8159,-2.6901 10.349,-4.2317 16.2537,-4.2317 18.4524,0 33.4451,14.9927 33.4451,33.4451 0,18.4524 -18.8803,38.6844 -37.3327,38.6844 -156.38771,0.5036 -260.29411,2.0643 -416.14001,1.0476 -20.9819,0 -40.1732,-9.95 -40.1732,-30.9319 0,-20.9819 17.0315,-38.0135 38.0135,-38.0135 5.4704,0 10.6628,1.1626 15.364,3.246 8.5176,-14.1042 23.9769,-23.539 41.6441,-23.5391 6.9565,0 13.5856,1.4766 19.5718,4.1115 3.3343,-21.40777 21.8545,-37.82099 44.1927,-37.82099 17.6347,0 32.8917,10.21732 40.1774,25.05369 6.5152,-3.85647 13.9606,-6.33057 21.904,-6.99677 -0.1673,-2.1558 -0.2644,-4.3173 -0.2644,-6.5159 0,-46.03662 37.3717,-83.40832 83.4083,-83.40832 z"
       style="fill:#ffffff;fill-opacity:1;fill-rule:nonzero;stroke:none;display:inline"
       id="path8757"
       inkscape:connector-curvature="0" />
    <path
       d="m 491.94148,1127.8433 c 12.8975,0 23.5851,9.5285 25.4029,21.924 0.4546,-0.04 0.9122,-0.067 1.3767,-0.067 8.8741,0 16.1009,7.5349 16.2986,16.8908 1.4825,-0.8282 3.186,-1.3027 5.0036,-1.3027 5.6804,0 10.2959,4.6154 10.2959,10.2958 0,5.6805 -5.8122,11.9087 -11.4927,11.9087 -48.1428,0.1551 -80.1297,0.6355 -128.1058,0.3225 -6.4591,0 -12.367,-3.063 -12.367,-9.5221 0,-6.4592 5.243,-11.7022 11.7021,-11.7022 1.6841,0 3.2826,0.3579 4.7298,0.9992 2.6221,-4.3418 7.3811,-7.2463 12.8199,-7.2463 2.1414,0 4.1821,0.4546 6.0249,1.2657 1.0265,-6.5903 6.7279,-11.643 13.6046,-11.643 5.4286,0 10.1254,3.1454 12.3683,7.7127 2.0056,-1.1872 4.2977,-1.9489 6.7429,-2.1539 -0.0514,-0.6637 -0.0814,-1.3291 -0.0814,-2.0059 0,-14.1721 11.5046,-25.6767 25.6767,-25.6767 z"
       style="fill:#ffffff;fill-opacity:1;fill-rule:nonzero;stroke:none;display:inline"
       id="path8759"
       inkscape:connector-curvature="0" />
    <path
       d="m 732.96339,-0.62250208 c -37.0531,0 -67.7573,27.37444008 -72.9794,62.98522008 -1.3062,-0.11617 -2.6208,-0.19138 -3.9552,-0.19138 -25.494,0 -46.2561,21.64713 -46.8243,48.525412 -4.2592,-2.37918 -9.1526,-3.74255 -14.3747,-3.74255 -16.3193,0 -29.5787,13.25953 -29.5787,29.57883 0,16.31929 16.6975,34.2124 33.0168,34.21241 138.3092,0.44536 230.20391,1.8257 368.03371,0.92648 18.5565,0 35.5292,-8.79972 35.5292,-27.35612 0,-18.55639 -15.0626,-33.61905 -33.6191,-33.61905 -4.838,0 -9.4302,1.02821 -13.5879,2.87069 -7.5328,-12.4737 -21.2052,-20.817852 -36.83,-20.817862 -6.1524,0 -12.0151,1.30588 -17.3092,3.63621 -2.9489,-18.93308 -19.3282,-33.44893 -39.0841,-33.44893 -15.5961,0 -29.0893,9.03618 -35.5328,22.15753 -5.762,-3.4107 -12.3468,-5.59876 -19.3719,-6.18794 0.148,-1.90668 0.2339,-3.81824 0.2339,-5.76267 0,-40.71478 -33.05151,-73.76628008 -73.76631,-73.76628008 z"
       style="fill:#ffffff;fill-opacity:1;fill-rule:nonzero;stroke:none;display:inline"
       id="path8769"
       inkscape:connector-curvature="0" />
    <path
       d="M 748.27084,328.02624 C 722.98144,328.02624 702.02554,346.70971 698.46124,371.01461 C 697.56954,370.93532 696.67254,370.88399 695.76164,370.88399 C 678.36164,370.88399 664.19104,385.65848 663.80334,404.00332 C 660.89644,402.3795 657.55654,401.44898 653.99244,401.44898 C 642.85424,401.44898 633.80454,410.49885 633.80454,421.63695 C 633.80454,432.77515 645.20084,444.98745 656.33904,444.98745 C 750.73704,445.29145 813.45675,446.23355 907.52775,445.61985 C 920.19265,445.61985 931.77685,439.61385 931.77685,426.94885 C 931.77685,414.28385 921.49635,404.00332 908.83125,404.00332 C 905.52935,404.00332 902.39515,404.70509 899.55745,405.96261 C 894.41595,397.44912 885.08445,391.75411 874.42035,391.7541 C 870.22125,391.7541 866.21985,392.64538 862.60645,394.23587 C 860.59385,381.31375 849.41495,371.40646 835.93105,371.40646 C 825.28655,371.40646 816.07725,377.57379 811.67935,386.52932 C 807.74675,384.20146 803.25255,382.70808 798.45785,382.30595 C 798.55875,381.00462 798.61735,379.69994 798.61735,378.37284 C 798.61735,350.58439 776.05925,328.02624 748.27084,328.02624 z "
       style="fill:#ffffff;fill-opacity:1;fill-rule:nonzero;stroke:none;stroke-width:1;stroke-linecap:butt;stroke-linejoin:miter;stroke-miterlimit:4;stroke-dasharray:none;stroke-dashoffset:0;stroke-opacity:1;display:inline"
       id="path8771" />
    <path
       d="m 913.08717,518.51248 c -27.7968,0 -50.8307,20.5359 -54.7483,47.2507 -0.98,-0.0872 -1.9661,-0.1436 -2.9671,-0.1436 -19.1254,0 -34.7009,16.2394 -35.127,36.40323 -3.1952,-1.7848 -6.8663,-2.8076 -10.7838,-2.8076 -12.2425,0 -22.1896,9.9471 -22.1897,22.1896 0,12.2426 12.5265,25.6658 24.769,25.6658 103.7578,0.3341 172.6961,1.3696 276.09443,0.695 13.9208,0 26.6535,-6.6014 26.6535,-20.5222 0,-13.9208 -11.2998,-25.2206 -25.2206,-25.2206 -3.6295,0 -7.0744,0.7713 -10.1935,2.1536 -5.6511,-9.3577 -15.9079,-15.61743 -27.6294,-15.61743 -4.6154,0 -9.0136,0.9797 -12.9852,2.72793 -2.2122,-14.20343 -14.4998,-25.09303 -29.3203,-25.09303 -11.70013,0 -21.82253,6.7788 -26.65633,16.6223 -4.3226,-2.5587 -9.2624,-4.2001 -14.5326,-4.6421 0.111,-1.4304 0.1755,-2.8644 0.1755,-4.3231 0,-30.5437 -24.7949,-55.3385 -55.3386,-55.3385 z"
       style="fill:#ffffff;fill-opacity:1;fill-rule:nonzero;stroke:none;display:inline"
       id="path8773"
       inkscape:connector-curvature="0" />
    <path
       d="m 1112.5528,1054.9272 c -25.3096,0 -46.2823,18.6983 -49.8493,43.0226 -0.8924,-0.079 -1.7902,-0.1307 -2.7016,-0.1307 -17.414,0 -31.5958,14.7863 -31.9838,33.1458 -2.9093,-1.6252 -6.2518,-2.5564 -9.8188,-2.5564 -11.1471,0 -20.2041,9.057 -20.2041,20.2041 0,11.1471 11.4055,23.3692 22.5526,23.3692 94.4733,0.3042 157.2431,1.2471 251.3888,0.6328 12.6753,0 24.2688,-6.0107 24.2688,-18.6858 0,-12.6753 -10.2886,-22.9639 -22.964,-22.9639 -3.3046,0 -6.4414,0.7023 -9.2814,1.9608 -5.1453,-8.5203 -14.4843,-14.2198 -25.157,-14.2198 -4.2023,0 -8.2071,0.892 -11.8233,2.4837 -2.0143,-12.9324 -13.2022,-22.8476 -26.6967,-22.8476 -10.6531,0 -19.8697,6.1722 -24.2709,15.1349 -3.9359,-2.3297 -8.4337,-3.8243 -13.2324,-4.2267 0.1012,-1.3024 0.16,-2.6081 0.16,-3.9363 0,-27.8106 -22.5763,-50.3867 -50.3869,-50.3867 z"
       style="fill:#ffffff;fill-opacity:1;fill-rule:nonzero;stroke:none;display:inline"
       id="path8775"
       inkscape:connector-curvature="0" />
    <path
       d="m 1423.6568,530.03519 c 36.9888,0 67.6396,27.32685 72.8527,62.87571 1.304,-0.11597 2.6161,-0.19105 3.9483,-0.19105 25.4496,0 46.1758,21.6095 46.7428,48.44105 4.2518,-2.37504 9.1368,-3.73603 14.3498,-3.73603 16.2908,0 29.5273,13.23647 29.5273,29.52739 0,16.29092 -16.6686,34.15293 -32.9595,34.15295 -138.0686,0.44459 -229.8036,1.82253 -367.394,0.92487 -18.5241,0 -35.4674,-8.78444 -35.4674,-27.30857 0,-18.52414 15.0366,-33.56061 33.5606,-33.56061 4.8296,0 9.4138,1.02643 13.5644,2.86571 7.5198,-12.45203 21.1682,-20.78167 36.766,-20.78168 6.1417,0 11.9941,1.30361 17.2792,3.62989 2.9437,-18.90017 19.2945,-33.39078 39.016,-33.39078 15.569,0 29.0387,9.02046 35.4711,22.11901 5.752,-3.40477 12.3253,-5.58903 19.3382,-6.17719 -0.1477,-1.90336 -0.2335,-3.8116 -0.2335,-5.75265 0,-40.64399 32.9941,-73.63802 73.638,-73.63802 z"
       style="fill:#ffffff;fill-opacity:1;fill-rule:nonzero;stroke:none;display:inline"
       id="path8787"
       inkscape:connector-curvature="0" />
    <path
       d="M 1116.45,149.67469 C 1153.4087,149.67469 1184.0342,176.97919 1189.2432,212.49897 C 1190.546,212.3831 1191.8572,212.30808 1193.1882,212.30808 C 1218.6173,212.30808 1239.3262,233.8999 1239.8928,260.70951 C 1244.1411,258.33641 1249.0221,256.97653 1254.2307,256.97653 C 1270.5085,256.97653 1283.7342,270.20219 1283.7342,286.47979 C 1283.7342,302.75739 1267.0791,320.60479 1250.8014,320.60479 C 1112.8458,321.04899 1021.1858,322.42579 883.70805,321.52889 C 865.19905,321.52889 848.26965,312.75169 848.26965,294.24269 C 848.26965,275.73369 863.29395,260.70951 881.80295,260.70951 C 886.62845,260.70951 891.20895,261.73509 895.35605,263.57287 C 902.86975,251.13103 916.50705,242.8082 932.09205,242.80818 C 938.22855,242.80818 944.07635,244.11073 949.35695,246.43511 C 952.29825,227.55041 968.63565,213.07164 988.34115,213.07164 C 1003.8974,213.07164 1017.3562,222.08473 1023.7832,235.17256 C 1029.5305,231.77057 1036.0984,229.58811 1043.1056,229.00042 C 1042.958,227.09862 1042.8723,225.19194 1042.8723,223.25248 C 1042.8723,182.64174 1075.8394,149.67469 1116.45,149.67469 z "
       style="fill:#ffffff;fill-opacity:1;fill-rule:nonzero;stroke:none;stroke-width:1;stroke-linecap:butt;stroke-linejoin:miter;stroke-miterlimit:4;stroke-dasharray:none;stroke-dashoffset:0;stroke-opacity:1;display:inline"
       id="path8789" />
    <path
       d="m 1201.3996,375.72032 c 28.9715,0 52.9786,21.4037 57.0618,49.2473 1.0213,-0.0909 2.0491,-0.1497 3.0926,-0.1497 19.9333,0 36.167,16.9256 36.611,37.9414 3.3303,-1.8603 7.1565,-2.9263 11.2396,-2.9263 12.7598,0 23.1272,10.3675 23.1272,23.1273 0,12.75984 -13.0557,26.75024 -25.8155,26.75024 -108.142,0.3483 -179.9933,1.4275 -287.7606,0.7244 -14.509,0 -27.77969,-6.8803 -27.77969,-21.38934 0,-14.509 11.77739,-26.2863 26.28639,-26.2863 3.7827,0 7.3733,0.8039 10.6242,2.2445 5.8898,-9.753 16.5799,-16.2772 28.7967,-16.2772 4.8105,0 9.3945,1.0211 13.5339,2.8431 2.3057,-14.8035 15.1124,-26.1532 30.5593,-26.1532 12.1944,0 22.7445,7.0652 27.7826,17.3246 4.5053,-2.6667 9.6538,-4.3776 15.1466,-4.8382 -0.1157,-1.4908 -0.1828,-2.9855 -0.1828,-4.5058 0,-31.8343 25.8424,-57.6768 57.6767,-57.6768 z"
       style="fill:#ffffff;fill-opacity:1;fill-rule:nonzero;stroke:none;display:inline"
       id="path8791"
       inkscape:connector-curvature="0" />
    <path
       d="m 1198.1237,814.37903 c 38.9061,0 71.1455,28.7433 76.6289,66.1349 1.3715,-0.122 2.7518,-0.201 4.153,-0.201 26.7689,0 48.5692,22.7296 49.1657,50.952 4.4722,-2.4982 9.6104,-3.9297 15.0936,-3.9297 17.1353,0 31.0579,13.9226 31.0579,31.0579 0,17.1353 -17.5327,35.9232 -34.668,35.9232 -145.2253,0.4677 -241.7153,1.917 -386.43747,0.9729 -19.4843,0 -37.3058,-9.2398 -37.3058,-28.7241 0,-19.4844 15.8159,-35.3002 35.3002,-35.3002 5.0799,0 9.9017,1.0796 14.2674,3.0142 7.90965,-13.0975 22.26555,-21.8589 38.67177,-21.8589 6.46,0 12.6159,1.3712 18.1747,3.8181 3.0963,-19.8799 20.2945,-35.1216 41.0384,-35.1216 16.3761,0 30.544,9.488 37.3097,23.2655 6.0502,-3.5812 12.9642,-5.8787 20.3406,-6.4973 -0.1553,-2.0021 -0.2457,-4.0092 -0.2457,-6.0509 0,-42.7507 34.7044,-77.455 77.4551,-77.455 z"
       style="fill:#ffffff;fill-opacity:1;fill-rule:nonzero;stroke:none;display:inline"
       id="path8793"
       inkscape:connector-curvature="0" />
    <path
       d="m 1472.2456,1036.1828 c 17.2974,0 31.6308,12.779 34.0686,29.403 0.6099,-0.054 1.2234,-0.089 1.8464,-0.089 11.9013,0 21.5936,10.1054 21.8588,22.653 1.9883,-1.1107 4.2727,-1.7472 6.7104,-1.7472 7.6183,0 13.8082,6.1899 13.8082,13.8082 0,7.6182 -7.7949,15.9712 -15.4132,15.9712 -64.5661,0.2079 -107.4648,0.8523 -171.8073,0.4325 -8.6627,0 -16.5859,-4.1079 -16.5859,-12.7705 0,-8.6626 7.0317,-15.6942 15.6943,-15.6942 2.2585,0 4.402,0.4799 6.3431,1.3401 3.5166,-5.8231 9.899,-9.7183 17.1932,-9.7183 2.8722,0 5.6089,0.6096 8.0802,1.6974 1.3768,-8.8385 9.0231,-15.6149 18.2456,-15.6149 7.2806,0 13.5796,4.2184 16.5876,10.3438 2.6899,-1.5923 5.7638,-2.6137 9.0433,-2.8888 -0.069,-0.89 -0.1092,-1.7824 -0.1092,-2.6901 0,-19.0067 15.4292,-34.4359 34.4359,-34.4359 z"
       style="fill:#ffffff;fill-opacity:1;fill-rule:nonzero;stroke:none;display:inline"
       id="path8795"
       inkscape:connector-curvature="0" />
    <path
       d="m 1335.0203,21.751494 c -22.8897,0 -41.8573,16.91057 -45.0832,38.90912 -0.807,-0.07176 -1.619,-0.11822 -2.4433,-0.11822 -15.749,0 -28.5747,13.37251 -28.9257,29.97658 -2.631,-1.46974 -5.6539,-2.31196 -8.88,-2.31196 -10.0813,0 -18.2721,8.19107 -18.2721,18.272316 0,10.08124 10.3148,21.13472 20.3961,21.13472 85.4403,0.27513 142.2083,1.12783 227.3527,0.57234 11.4634,0 21.9482,-5.43604 21.9482,-16.89925 0,-11.463216 -9.3051,-20.768166 -20.7681,-20.768166 -2.9887,0 -5.8255,0.63517 -8.394,1.77337 -4.6535,-7.70564 -13.0996,-12.86024 -22.7518,-12.86024 -3.8007,0 -7.4223,0.8067 -10.6929,2.24627 -1.8215,-11.69591 -11.9398,-20.66308 -24.144,-20.66308 -9.6345,0 -17.97,5.5821 -21.9503,13.68781 -3.5597,-2.10696 -7.6272,-3.45863 -11.9672,-3.8226 0.091,-1.17785 0.1446,-2.35871 0.1446,-3.55989 0,-25.15155 -20.4175,-45.56912 -45.569,-45.56912 z"
       style="fill:#ffffff;fill-opacity:1;fill-rule:nonzero;stroke:none;display:inline"
       id="path8805"
       inkscape:connector-curvature="0" />
    <path
       d="m 1427.3608,288.09138 c -22.9652,0 -41.9953,16.9664 -45.2319,39.0376 -0.8097,-0.072 -1.6244,-0.1186 -2.4514,-0.1186 -15.8011,0 -28.6693,13.4167 -29.0213,30.0756 -2.6398,-1.4746 -5.6728,-2.3196 -8.9093,-2.3196 -10.1146,0 -18.3328,8.2182 -18.3328,18.3327 0,10.1146 10.3491,21.2045 20.4636,21.2046 85.7229,0.276 142.6784,1.1315 228.104,0.5742 11.5011,0 22.0206,-5.454 22.0206,-16.9551 0,-11.5011 -9.3356,-20.8368 -20.8367,-20.8368 -2.9986,0 -5.8449,0.6373 -8.4218,1.7793 -4.6687,-7.7311 -13.1427,-12.9028 -22.8268,-12.9028 -3.8131,0 -7.4469,0.8094 -10.7281,2.2537 -1.8277,-11.7345 -11.9793,-20.7313 -24.2239,-20.7313 -9.6664,0 -18.0293,5.6005 -22.023,13.733 -3.5712,-2.1139 -7.6524,-3.47 -12.0065,-3.8352 0.092,-1.1818 0.145,-2.3665 0.145,-3.5717 0,-25.2346 -20.485,-45.7196 -45.7197,-45.7196 z"
       style="fill:#ffffff;fill-opacity:1;fill-rule:nonzero;stroke:none;display:inline"
       id="path8809"
       inkscape:connector-curvature="0" />
    <path
       d="m 1456.9061,748.78224 c -16.4284,0 -30.0417,12.137 -32.357,27.9258 -0.5792,-0.0515 -1.1619,-0.0849 -1.7536,-0.0849 -11.3033,0 -20.5086,9.5978 -20.7604,21.5148 -1.8885,-1.0548 -4.058,-1.6593 -6.3734,-1.6593 -7.2354,0 -13.1143,5.8789 -13.1144,13.1143 0,7.2355 7.4033,15.1688 14.6389,15.1688 61.3218,0.1974 102.0654,0.8094 163.1749,0.4108 8.2273,0 15.7525,-3.9016 15.7525,-12.1289 0,-8.2274 -6.6783,-14.9057 -14.9057,-14.9057 -2.1449,0 -4.1809,0.4559 -6.0244,1.2728 -3.3399,-5.5305 -9.4019,-9.23 -16.3291,-9.23 -2.728,0 -5.3274,0.579 -7.6745,1.6122 -1.3077,-8.3944 -8.5696,-14.8304 -17.3287,-14.8304 -6.915,0 -12.8975,4.0065 -15.7544,9.8241 -2.5545,-1.5122 -5.474,-2.4823 -8.5888,-2.7435 0.066,-0.8454 0.1037,-1.6929 0.1037,-2.555 0,-18.0518 -14.6539,-32.7059 -32.7056,-32.7059 z"
       style="fill:#ffffff;fill-opacity:1;fill-rule:nonzero;stroke:none;display:inline"
       id="path8813"
       inkscape:connector-curvature="0" />
    <path
       d="m 170.13798,992.95614 c -32.5046,0 -59.43952,25.50346 -64.02055,58.68016 -1.14604,-0.1082 -2.29916,-0.1783 -3.46968,-0.1783 -22.364642,0 -40.578105,20.1676 -41.076321,45.2087 -3.736333,-2.2165 -8.029196,-3.4867 -12.61009,-3.4867 -14.316055,0 -25.947973,12.3533 -25.947973,27.5571 0,15.204 14.647962,31.8739 28.963875,31.8741 121.330919,0.4149 201.944889,1.7008 322.855019,0.8631 16.27848,0 31.16763,-8.1983 31.16763,-25.4864 0,-17.288 -13.21347,-31.3212 -29.49196,-31.3212 -4.24417,0 -8.27278,0.958 -11.92009,2.6746 -6.60801,-11.6211 -18.60198,-19.3951 -32.30871,-19.3951 -5.39701,0 -10.54023,1.2167 -15.1844,3.3877 -2.5869,-17.6389 -16.95532,-31.1626 -34.28614,-31.1626 -13.68168,0 -25.51841,8.4185 -31.17103,20.643 -5.05462,-3.1776 -10.83109,-5.216 -16.99382,-5.765 0.13021,-1.7764 0.20523,-3.5572 0.20523,-5.3688 0,-37.9319 -28.99417,-68.72436 -64.71099,-68.72436 z"
       style="fill:#ffffff;fill-opacity:1;fill-rule:nonzero;stroke:none;display:inline"
       id="path8809-5"
       inkscape:connector-curvature="0" />
    <path
       d="m 97.632295,300.48373 c -9.6577,0 -17.6607,7.135 -19.0218,16.4169 -0.3405,-0.0303 -0.6831,-0.0499 -1.0309,-0.0499 -6.644804,0 -12.056504,5.6422 -12.204604,12.6479 -1.1101,-0.6201 -2.3856,-0.9754 -3.7467,-0.9754 -4.2536,0 -7.7096,3.456 -7.7096,7.7096 0,4.2535 4.3522,8.9173 8.6057,8.9173 36.049804,0.1161 60.001799,0.4759 95.926699,0.2415 4.8367,0 9.2607,-2.2936 9.2607,-7.1303 0,-4.8366 -3.9262,-8.7627 -8.7628,-8.7627 -1.261,0 -2.458,0.268 -3.5417,0.7483 -1.9634,-3.2512 -5.527,-5.4261 -9.5996,-5.4261 -1.6036,0 -3.1317,0.3404 -4.5116,0.9477 -0.7686,-4.9348 -5.0378,-8.7183 -10.1871,-8.7183 -4.0651,0 -7.582,2.3552 -9.2614,5.7753 -1.50179,-0.889 -3.21809,-1.4593 -5.04929,-1.6129 0.0386,-0.497 0.061,-0.9952 0.061,-1.502 0,-10.6122 -8.6148,-19.2269 -19.227005,-19.2269 z"
       style="fill:#ffffff;fill-opacity:1;fill-rule:nonzero;stroke:none;display:inline"
       id="path8741-2"
       inkscape:connector-curvature="0" />
  </g>
</svg>
